# xmcd
#
# Track frame offsets:
#	150
#	16607
#	34442
#	53287
#	67032
#	83900
#	100455
#	115792
#	133755
#	157712
#	174415
#	192995
#	207560
#	225385
#	244997
#
# Disc length: 3482 seconds
#
# Revision: 0
# Processed by: cddbd v1.4PL0 Copyright (c) Steve Scherf et al.
# Submitted via: dBpowerAMP V4.0
#
DISCID=c10d980f
DTITLE=Zomer - Hits van het seizoen
DYEAR=1900
DGENRE=
TTITLE0=Lasciati Tentare
TTITLE1=Wild Rythm
TTITLE2=Follow the Leader 
TTITLE3=That's the way (i like it)
TTITLE4=The Way to your Heart
TTITLE5=Fiesta
TTITLE6=Walking on Sunshine
TTITLE7=Please don't go
TTITLE8=You're A Woman
TTITLE9=Sex on the Beach
TTITLE10=Maldon
TTITLE11=Good Thing Going
TTITLE12=Papa Chico
TTITLE13=Oh Diana
TTITLE14=Perfect
EXTD=
EXTT0=
EXTT1=
EXTT2=
EXTT3=
EXTT4=
EXTT5=
EXTT6=
EXTT7=
EXTT8=
EXTT9=
EXTT10=
EXTT11=
EXTT12=
EXTT13=
EXTT14=
PLAYORDER=
